<svg width="32" height="32" viewBox="0 0 32 32" fill="none" xmlns="http://www.w3.org/2000/svg">
<path fill-rule="evenodd" clip-rule="evenodd" d="M9.95301 1.42198C11.517 1.34998 12.0157 1.33398 15.9997 1.33398C19.9837 1.33398 20.4823 1.35132 22.045 1.42198C23.6077 1.49265 24.6743 1.74198 25.6077 2.10332C26.585 2.47265 27.4717 3.04998 28.205 3.79665C28.9517 4.52865 29.5277 5.41398 29.8957 6.39265C30.2583 7.32598 30.5063 8.39265 30.5783 9.95265C30.6503 11.5193 30.6663 12.018 30.6663 16.0006C30.6663 19.9846 30.649 20.4833 30.5783 22.0473C30.5077 23.6073 30.2583 24.674 29.8957 25.6073C29.5277 26.5861 28.9507 27.4729 28.205 28.206C27.4717 28.9526 26.585 29.5286 25.6077 29.8966C24.6743 30.2593 23.6077 30.5073 22.0477 30.5793C20.4823 30.6513 19.9837 30.6673 15.9997 30.6673C12.0157 30.6673 11.517 30.65 9.95301 30.5793C8.39301 30.5086 7.32634 30.2593 6.39301 29.8966C5.41424 29.5286 4.52744 28.9517 3.79434 28.206C3.04818 27.4735 2.47076 26.5872 2.10234 25.6086C1.74101 24.6753 1.49301 23.6086 1.42101 22.0486C1.34901 20.482 1.33301 19.9833 1.33301 16.0006C1.33301 12.0166 1.35034 11.518 1.42101 9.95532C1.49167 8.39265 1.74101 7.32598 2.10234 6.39265C2.47131 5.41409 3.04917 4.52773 3.79567 3.79532C4.52773 3.04932 5.41364 2.47191 6.39168 2.10332C7.32501 1.74198 8.39168 1.49398 9.95168 1.42198H9.95301ZM21.9263 4.06198C20.3797 3.99132 19.9157 3.97665 15.9997 3.97665C12.0837 3.97665 11.6197 3.99132 10.073 4.06198C8.64234 4.12732 7.86634 4.36598 7.34901 4.56732C6.66501 4.83398 6.17568 5.14998 5.66234 5.66332C5.17573 6.13672 4.80125 6.71303 4.56634 7.34998C4.36501 7.86732 4.12634 8.64332 4.06101 10.074C3.99034 11.6206 3.97567 12.0846 3.97567 16.0006C3.97567 19.9166 3.99034 20.3806 4.06101 21.9273C4.12634 23.358 4.36501 24.134 4.56634 24.6513C4.80101 25.2873 5.17568 25.8646 5.66234 26.338C6.13568 26.8246 6.71301 27.1993 7.34901 27.434C7.86634 27.6353 8.64234 27.874 10.073 27.9393C11.6197 28.01 12.0823 28.0246 15.9997 28.0246C19.917 28.0246 20.3797 28.01 21.9263 27.9393C23.357 27.874 24.133 27.6353 24.6503 27.434C25.3343 27.1673 25.8237 26.8513 26.337 26.338C26.8237 25.8646 27.1983 25.2873 27.433 24.6513C27.6343 24.134 27.873 23.358 27.9383 21.9273C28.009 20.3806 28.0237 19.9166 28.0237 16.0006C28.0237 12.0846 28.009 11.6206 27.9383 10.074C27.873 8.64332 27.6343 7.86732 27.433 7.34998C27.1663 6.66598 26.8503 6.17665 26.337 5.66332C25.8636 5.17675 25.2873 4.80226 24.6503 4.56732C24.133 4.36598 23.357 4.12732 21.9263 4.06198ZM14.1263 20.522C15.1726 20.9575 16.3375 21.0163 17.4222 20.6883C18.507 20.3603 19.4442 19.6659 20.0738 18.7236C20.7034 17.7814 20.9864 16.6498 20.8744 15.5221C20.7624 14.3944 20.2624 13.3406 19.4597 12.5406C18.948 12.0293 18.3293 11.6377 17.6481 11.3942C16.9669 11.1506 16.2402 11.0611 15.5203 11.1321C14.8004 11.2031 14.1052 11.4329 13.4847 11.8048C12.8643 12.1768 12.334 12.6816 11.9321 13.2831C11.5302 13.8846 11.2666 14.5677 11.1604 15.2833C11.0541 15.9988 11.1079 16.729 11.3177 17.4213C11.5276 18.1136 11.8883 18.7508 12.374 19.2869C12.8596 19.8231 13.4581 20.2449 14.1263 20.522ZM10.669 10.67C11.369 9.96995 12.2001 9.41465 13.1147 9.0358C14.0294 8.65694 15.0097 8.46195 15.9997 8.46195C16.9897 8.46195 17.97 8.65694 18.8846 9.0358C19.7992 9.41465 20.6303 9.96995 21.3303 10.67C22.0304 11.37 22.5857 12.2011 22.9645 13.1157C23.3434 14.0304 23.5384 15.0107 23.5384 16.0006C23.5384 16.9906 23.3434 17.9709 22.9645 18.8856C22.5857 19.8002 22.0304 20.6313 21.3303 21.3313C19.9166 22.7451 17.9991 23.5393 15.9997 23.5393C14.0003 23.5393 12.0828 22.7451 10.669 21.3313C9.25523 19.9175 8.46097 18 8.46097 16.0006C8.46097 14.0013 9.25523 12.0838 10.669 10.67ZM25.2103 9.58465C25.3838 9.42101 25.5227 9.22422 25.6187 9.00595C25.7148 8.78767 25.7661 8.55234 25.7696 8.31389C25.773 8.07544 25.7286 7.83871 25.639 7.61773C25.5493 7.39675 25.4163 7.196 25.2476 7.02737C25.079 6.85874 24.8782 6.72566 24.6573 6.63601C24.4363 6.54635 24.1996 6.50195 23.9611 6.50543C23.7227 6.5089 23.4873 6.56019 23.269 6.65625C23.0508 6.7523 22.854 6.89118 22.6903 7.06465C22.3721 7.40202 22.1979 7.85015 22.2046 8.31389C22.2114 8.77764 22.3986 9.22049 22.7266 9.54844C23.0545 9.87639 23.4974 10.0636 23.9611 10.0704C24.4248 10.0771 24.873 9.9029 25.2103 9.58465Z" fill="#F5F5F5"/>
</svg>
